# xmcd
#
# Track frame offsets:
#	150
#	15036
#	31340
#	41797
#	58824
#	75847
#	87713
#	103178
#	112439
#	125790
#	139535
#	150866
#	166692
#	178992
#
# Disc length: 2516 seconds
#
# Revision: 2
# Processed by: cddbd v1.5.2PL0 Copyright (c) Steve Scherf et al.
# Submitted via: audiograbber 1.83.01
#
DISCID=b209d20e
DTITLE=Diverse - Deutsche Truckerr Hits - CD 3
DYEAR=2008
DGENRE=Country
TTITLE0=Dave Dudley - Deutschland Autobahn
TTITLE1=Gunter Gabriel - Ich bin CB-Funker (Neuaufnahme)
TTITLE2=Jonny Hill - König der Landstraße
TTITLE3=New Mavericks - Mit einem Cadillac nach Kalifornien
TTITLE4=Gudrun Lange and Kactus - Wanderer im Wunderland
TTITLE5=Freddy Quinn - Ich möcht' in Tennessee leben
TTITLE6=Neno Mal Boro - Halleluja Amigo
TTITLE7=Bill Ramsey - Der Tramp
TTITLE8=Bruce Low - Leise rauscht es am Missouri
TTITLE9=Starlet Studio Band - Abends auf der Ranch
TTITLE10=Die Colorado Singers and Boy Cliff - Hilly Billy Pacadilly
TTITLE11=Nancy Wood - Sein bester Freund
TTITLE12=Ralf Paulsen - Die Western von gestern
TTITLE13=Dieter-Thomas Heck - Das wilde Leben im Wilden Westen
EXTD=
EXTT0=
EXTT1=
EXTT2=
EXTT3=
EXTT4=
EXTT5=
EXTT6=
EXTT7=
EXTT8=
EXTT9=
EXTT10=
EXTT11=
EXTT12=
EXTT13=
PLAYORDER=
